G75*
%MOIN*%
%OFA0B0*%
%FSLAX24Y24*%
%IPPOS*%
%LPD*%
%AMOC8*
5,1,8,0,0,1.08239X$1,22.5*
%
%ADD10C,0.0000*%
%ADD11C,0.0010*%
%ADD12C,0.0160*%
%ADD13R,0.0740X0.0740*%
%ADD14C,0.0740*%
%ADD15C,0.0520*%
%ADD16OC8,0.0520*%
%ADD17C,0.0436*%
%ADD18C,0.0515*%
%ADD19OC8,0.0740*%
%ADD20R,0.0396X0.0396*%
D10*
X002030Y002280D02*
X002030Y021280D01*
X002030Y002280D02*
X037030Y002280D01*
D11*
X037030Y021280D01*
X002030Y021280D01*
D12*
X002510Y020795D02*
X011551Y020795D01*
X011310Y020554D01*
X011310Y020206D01*
X011556Y019960D01*
X011904Y019960D01*
X012084Y020140D01*
X015856Y020140D01*
X015881Y020080D01*
X016030Y019931D01*
X016225Y019850D01*
X016435Y019850D01*
X016630Y019931D01*
X016779Y020080D01*
X016860Y020275D01*
X016860Y020485D01*
X016779Y020680D01*
X016665Y020795D01*
X036545Y020795D01*
X036545Y013404D01*
X036010Y013939D01*
X036010Y014350D01*
X035730Y014630D01*
X036010Y014910D01*
X036010Y015350D01*
X035730Y015630D01*
X036010Y015910D01*
X036010Y016350D01*
X035730Y016630D01*
X036010Y016910D01*
X036010Y017350D01*
X035744Y017616D01*
X036030Y017902D01*
X036030Y018110D01*
X035500Y018110D01*
X035500Y018150D01*
X035460Y018150D01*
X035460Y018680D01*
X035252Y018680D01*
X034966Y018394D01*
X034700Y018660D01*
X034260Y018660D01*
X033950Y018350D01*
X033950Y017910D01*
X034230Y017630D01*
X033970Y017370D01*
X018588Y017370D01*
X018588Y017394D01*
X018494Y017488D01*
X017966Y017488D01*
X017872Y017394D01*
X017872Y016866D01*
X017966Y016772D01*
X018494Y016772D01*
X018588Y016866D01*
X018588Y016890D01*
X033970Y016890D01*
X034230Y016630D01*
X033970Y016370D01*
X017179Y016370D01*
X016622Y016927D01*
X016630Y016931D01*
X016779Y017080D01*
X016860Y017275D01*
X016860Y017485D01*
X016779Y017680D01*
X016630Y017829D01*
X016435Y017910D01*
X016225Y017910D01*
X016030Y017829D01*
X015881Y017680D01*
X015800Y017485D01*
X015800Y017275D01*
X015881Y017080D01*
X016030Y016931D01*
X016090Y016906D01*
X016090Y016832D01*
X016127Y016744D01*
X016877Y015994D01*
X016944Y015927D01*
X017032Y015890D01*
X033970Y015890D01*
X034216Y015644D01*
X033930Y015358D01*
X033930Y015150D01*
X034460Y015150D01*
X034460Y015110D01*
X033930Y015110D01*
X033930Y014902D01*
X034216Y014616D01*
X033970Y014370D01*
X014382Y014370D01*
X014294Y014333D01*
X014227Y014266D01*
X013377Y013416D01*
X013340Y013328D01*
X013340Y013020D01*
X012580Y013020D01*
X012466Y013134D01*
X012313Y013197D01*
X012147Y013197D01*
X011994Y013134D01*
X011876Y013016D01*
X011813Y012863D01*
X011813Y012697D01*
X011876Y012544D01*
X011994Y012426D01*
X012147Y012363D01*
X012313Y012363D01*
X012466Y012426D01*
X012580Y012540D01*
X014656Y012540D01*
X014681Y012480D01*
X014830Y012331D01*
X015025Y012250D01*
X015235Y012250D01*
X015430Y012331D01*
X015579Y012480D01*
X015660Y012675D01*
X015660Y012885D01*
X015579Y013080D01*
X015430Y013229D01*
X015235Y013310D01*
X015025Y013310D01*
X014830Y013229D01*
X014681Y013080D01*
X014656Y013020D01*
X013820Y013020D01*
X013820Y013181D01*
X014529Y013890D01*
X033970Y013890D01*
X034230Y013630D01*
X033970Y013370D01*
X032479Y013370D01*
X032066Y013783D01*
X031978Y013820D01*
X024882Y013820D01*
X024794Y013783D01*
X024727Y013716D01*
X024077Y013066D01*
X024040Y012978D01*
X024040Y012920D01*
X023080Y012920D01*
X022966Y013034D01*
X022813Y013097D01*
X022647Y013097D01*
X022494Y013034D01*
X022376Y012916D01*
X022313Y012763D01*
X022313Y012597D01*
X022376Y012444D01*
X022494Y012326D01*
X022647Y012263D01*
X022813Y012263D01*
X022966Y012326D01*
X023080Y012440D01*
X025906Y012440D01*
X025931Y012380D01*
X026080Y012231D01*
X026275Y012150D01*
X026485Y012150D01*
X026680Y012231D01*
X026829Y012380D01*
X026910Y012575D01*
X026910Y012785D01*
X026829Y012980D01*
X026680Y013129D01*
X026485Y013210D01*
X026275Y013210D01*
X026080Y013129D01*
X025931Y012980D01*
X025906Y012920D01*
X024609Y012920D01*
X025029Y013340D01*
X031831Y013340D01*
X032177Y012994D01*
X032244Y012927D01*
X032332Y012890D01*
X033970Y012890D01*
X034216Y012644D01*
X033930Y012358D01*
X033930Y012150D01*
X034460Y012150D01*
X034460Y012110D01*
X033930Y012110D01*
X033930Y011902D01*
X034216Y011616D01*
X033970Y011370D01*
X031138Y011370D01*
X031138Y011394D01*
X031044Y011488D01*
X030516Y011488D01*
X030422Y011394D01*
X030422Y010866D01*
X030516Y010772D01*
X031044Y010772D01*
X031138Y010866D01*
X031138Y010890D01*
X033970Y010890D01*
X034230Y010630D01*
X033970Y010370D01*
X032088Y010370D01*
X032088Y010394D01*
X031994Y010488D01*
X031466Y010488D01*
X031372Y010394D01*
X031372Y009866D01*
X031466Y009772D01*
X031994Y009772D01*
X032088Y009866D01*
X032088Y009890D01*
X033970Y009890D01*
X034230Y009630D01*
X033970Y009370D01*
X033088Y009370D01*
X033088Y009394D01*
X032994Y009488D01*
X032466Y009488D01*
X032372Y009394D01*
X032372Y008866D01*
X032466Y008772D01*
X032994Y008772D01*
X033088Y008866D01*
X033088Y008890D01*
X033970Y008890D01*
X034216Y008644D01*
X033930Y008358D01*
X033930Y008150D01*
X034460Y008150D01*
X034460Y008110D01*
X033930Y008110D01*
X033930Y007902D01*
X034216Y007616D01*
X033970Y007370D01*
X033629Y007370D01*
X029033Y011966D01*
X028966Y012033D01*
X028878Y012070D01*
X022679Y012070D01*
X022147Y012602D01*
X022147Y012763D01*
X022084Y012916D01*
X021966Y013034D01*
X021813Y013097D01*
X021647Y013097D01*
X021494Y013034D01*
X021376Y012916D01*
X021313Y012763D01*
X021313Y012597D01*
X021376Y012444D01*
X021494Y012326D01*
X021647Y012263D01*
X021808Y012263D01*
X022001Y012070D01*
X012279Y012070D01*
X011647Y012702D01*
X011647Y012863D01*
X011584Y013016D01*
X011466Y013134D01*
X011313Y013197D01*
X011147Y013197D01*
X010994Y013134D01*
X010876Y013016D01*
X010813Y012863D01*
X010813Y012697D01*
X010876Y012544D01*
X010994Y012426D01*
X011147Y012363D01*
X011308Y012363D01*
X011601Y012070D01*
X005029Y012070D01*
X003370Y013729D01*
X003370Y015752D01*
X003423Y015752D01*
X003562Y015809D01*
X003669Y015916D01*
X003726Y016055D01*
X003726Y016205D01*
X003669Y016344D01*
X003647Y016366D01*
X003657Y016376D01*
X003701Y016441D01*
X003731Y016514D01*
X003746Y016591D01*
X003746Y016630D01*
X003746Y016669D01*
X003731Y016746D01*
X003701Y016819D01*
X003657Y016884D01*
X003651Y016890D01*
X014322Y016890D01*
X014322Y016866D01*
X014416Y016772D01*
X014944Y016772D01*
X015038Y016866D01*
X015038Y017394D01*
X014944Y017488D01*
X014416Y017488D01*
X014322Y017394D01*
X014322Y017370D01*
X003643Y017370D01*
X003562Y017451D01*
X003423Y017508D01*
X002837Y017508D01*
X002698Y017451D01*
X002591Y017344D01*
X002534Y017205D01*
X002534Y017055D01*
X002591Y016916D01*
X002613Y016894D01*
X002603Y016884D01*
X002559Y016819D01*
X002529Y016746D01*
X002514Y016669D01*
X002514Y016630D01*
X002514Y016591D01*
X002529Y016514D01*
X002559Y016441D01*
X002603Y016376D01*
X002613Y016366D01*
X002591Y016344D01*
X002534Y016205D01*
X002534Y016055D01*
X002591Y015916D01*
X002698Y015809D01*
X002837Y015752D01*
X002890Y015752D01*
X002890Y013582D01*
X002927Y013494D01*
X002994Y013427D01*
X004794Y011627D01*
X004882Y011590D01*
X017551Y011590D01*
X016777Y010816D01*
X016740Y010728D01*
X016740Y007444D01*
X016624Y007328D01*
X016560Y007174D01*
X016560Y006486D01*
X016624Y006332D01*
X016740Y006216D01*
X016740Y004254D01*
X016680Y004229D01*
X016531Y004080D01*
X016480Y003958D01*
X016429Y004080D01*
X016280Y004229D01*
X016220Y004254D01*
X016220Y006216D01*
X016336Y006332D01*
X016400Y006486D01*
X016400Y007174D01*
X016336Y007328D01*
X016218Y007446D01*
X016064Y007510D01*
X015896Y007510D01*
X015742Y007446D01*
X015624Y007328D01*
X015560Y007174D01*
X015560Y006486D01*
X015624Y006332D01*
X015740Y006216D01*
X015740Y004254D01*
X015680Y004229D01*
X015531Y004080D01*
X015506Y004020D01*
X014904Y004020D01*
X014879Y004080D01*
X014730Y004229D01*
X014535Y004310D01*
X014325Y004310D01*
X014130Y004229D01*
X013981Y004080D01*
X013900Y003885D01*
X013900Y003675D01*
X013981Y003480D01*
X014130Y003331D01*
X014325Y003250D01*
X014535Y003250D01*
X014730Y003331D01*
X014879Y003480D01*
X014904Y003540D01*
X015506Y003540D01*
X015531Y003480D01*
X015680Y003331D01*
X015875Y003250D01*
X016085Y003250D01*
X016280Y003331D01*
X016429Y003480D01*
X016480Y003602D01*
X016531Y003480D01*
X016680Y003331D01*
X016875Y003250D01*
X017085Y003250D01*
X017280Y003331D01*
X017429Y003480D01*
X017480Y003602D01*
X017531Y003480D01*
X017680Y003331D01*
X017875Y003250D01*
X018085Y003250D01*
X018280Y003331D01*
X018429Y003480D01*
X018510Y003675D01*
X018510Y003885D01*
X018429Y004080D01*
X018280Y004229D01*
X018085Y004310D01*
X017875Y004310D01*
X017680Y004229D01*
X017531Y004080D01*
X017480Y003958D01*
X017429Y004080D01*
X017280Y004229D01*
X017220Y004254D01*
X017220Y006216D01*
X017336Y006332D01*
X017400Y006486D01*
X017400Y007174D01*
X017336Y007328D01*
X017220Y007444D01*
X017220Y010581D01*
X018229Y011590D01*
X019751Y011590D01*
X019296Y011135D01*
X019235Y011160D01*
X019025Y011160D01*
X018830Y011079D01*
X018681Y010930D01*
X018600Y010735D01*
X018600Y010525D01*
X018681Y010330D01*
X018830Y010181D01*
X019025Y010100D01*
X019235Y010100D01*
X019430Y010181D01*
X019579Y010330D01*
X019660Y010525D01*
X019660Y010735D01*
X019635Y010796D01*
X020429Y011590D01*
X024156Y011590D01*
X024130Y011579D01*
X023981Y011430D01*
X023900Y011235D01*
X023900Y011025D01*
X023981Y010830D01*
X024130Y010681D01*
X024325Y010600D01*
X024535Y010600D01*
X024730Y010681D01*
X024879Y010830D01*
X024904Y010890D01*
X028072Y010890D01*
X028072Y010866D01*
X028166Y010772D01*
X028694Y010772D01*
X028788Y010866D01*
X028788Y011394D01*
X028694Y011488D01*
X028166Y011488D01*
X028072Y011394D01*
X028072Y011370D01*
X024904Y011370D01*
X024879Y011430D01*
X024730Y011579D01*
X024704Y011590D01*
X028731Y011590D01*
X033394Y006927D01*
X033482Y006890D01*
X033970Y006890D01*
X034230Y006630D01*
X033950Y006350D01*
X033950Y005910D01*
X034240Y005620D01*
X034240Y005229D01*
X033031Y004020D01*
X030179Y004020D01*
X029233Y004966D01*
X029166Y005033D01*
X029078Y005070D01*
X028432Y005070D01*
X028344Y005033D01*
X027894Y004583D01*
X027827Y004516D01*
X027790Y004428D01*
X027790Y004254D01*
X027730Y004229D01*
X027581Y004080D01*
X027530Y003958D01*
X027479Y004080D01*
X027330Y004229D01*
X027270Y004254D01*
X027270Y007931D01*
X028229Y008890D01*
X029822Y008890D01*
X029822Y008866D01*
X029916Y008772D01*
X030444Y008772D01*
X030538Y008866D01*
X030538Y009394D01*
X030444Y009488D01*
X029916Y009488D01*
X029822Y009394D01*
X029822Y009370D01*
X028082Y009370D01*
X027994Y009333D01*
X027927Y009266D01*
X026827Y008166D01*
X026790Y008078D01*
X026790Y004254D01*
X026730Y004229D01*
X026581Y004080D01*
X026560Y004030D01*
X026560Y004216D01*
X026466Y004310D01*
X026270Y004310D01*
X026270Y007931D01*
X028229Y009890D01*
X028922Y009890D01*
X028922Y009866D01*
X029016Y009772D01*
X029544Y009772D01*
X029638Y009866D01*
X029638Y010394D01*
X029544Y010488D01*
X029016Y010488D01*
X028922Y010394D01*
X028922Y010370D01*
X028082Y010370D01*
X027994Y010333D01*
X027927Y010266D01*
X025827Y008166D01*
X025790Y008078D01*
X025790Y004310D01*
X025594Y004310D01*
X025500Y004216D01*
X025500Y003344D01*
X025594Y003250D01*
X026466Y003250D01*
X026560Y003344D01*
X026560Y003530D01*
X026581Y003480D01*
X026730Y003331D01*
X026925Y003250D01*
X027135Y003250D01*
X027330Y003331D01*
X027479Y003480D01*
X027530Y003602D01*
X027581Y003480D01*
X027730Y003331D01*
X027925Y003250D01*
X028135Y003250D01*
X028330Y003331D01*
X028479Y003480D01*
X028519Y003574D01*
X028520Y003569D01*
X028560Y003492D01*
X028610Y003422D01*
X028672Y003360D01*
X028742Y003310D01*
X028819Y003270D01*
X028901Y003244D01*
X028987Y003230D01*
X029010Y003230D01*
X029010Y003760D01*
X029050Y003760D01*
X029050Y003800D01*
X029580Y003800D01*
X029580Y003823D01*
X029566Y003909D01*
X029545Y003976D01*
X029944Y003577D01*
X030032Y003540D01*
X033178Y003540D01*
X033266Y003577D01*
X033333Y003644D01*
X034683Y004994D01*
X034720Y005082D01*
X034720Y005620D01*
X034980Y005880D01*
X035260Y005600D01*
X035700Y005600D01*
X036010Y005910D01*
X036010Y006321D01*
X036516Y006827D01*
X036545Y006856D01*
X036545Y002760D01*
X002510Y002760D01*
X002510Y020795D01*
X002510Y020666D02*
X011422Y020666D01*
X011310Y020508D02*
X002510Y020508D01*
X002510Y020349D02*
X011310Y020349D01*
X011326Y020191D02*
X002510Y020191D01*
X002510Y020032D02*
X011484Y020032D01*
X011548Y019820D02*
X011290Y019562D01*
X011290Y019380D01*
X011730Y019380D01*
X011730Y019380D01*
X011730Y019820D01*
X011912Y019820D01*
X012170Y019562D01*
X012170Y019380D01*
X011730Y019380D01*
X011730Y019380D01*
X011730Y019380D01*
X011730Y019820D01*
X011548Y019820D01*
X011443Y019715D02*
X002510Y019715D01*
X002510Y019557D02*
X011290Y019557D01*
X011290Y019398D02*
X002510Y019398D01*
X002510Y019240D02*
X011290Y019240D01*
X011290Y019198D02*
X011548Y018940D01*
X011730Y018940D01*
X011912Y018940D01*
X012170Y019198D01*
X012170Y019380D01*
X011730Y019380D01*
X011730Y018940D01*
X011730Y019380D01*
X011730Y019380D01*
X011290Y019380D01*
X011290Y019198D01*
X011407Y019081D02*
X002510Y019081D01*
X002510Y018923D02*
X036545Y018923D01*
X036545Y019081D02*
X012053Y019081D01*
X012170Y019240D02*
X036545Y019240D01*
X036545Y019398D02*
X012170Y019398D01*
X012170Y019557D02*
X036545Y019557D01*
X036545Y019715D02*
X012017Y019715D01*
X011730Y019715D02*
X011730Y019715D01*
X011730Y019557D02*
X011730Y019557D01*
X011730Y019398D02*
X011730Y019398D01*
X011730Y019240D02*
X011730Y019240D01*
X011730Y019081D02*
X011730Y019081D01*
X011976Y020032D02*
X015928Y020032D01*
X016168Y019874D02*
X002510Y019874D01*
X002510Y018764D02*
X036545Y018764D01*
X036545Y018606D02*
X035782Y018606D01*
X035708Y018680D02*
X035500Y018680D01*
X035500Y018150D01*
X036030Y018150D01*
X036030Y018358D01*
X035708Y018680D01*
X035500Y018606D02*
X035460Y018606D01*
X035460Y018447D02*
X035500Y018447D01*
X035500Y018289D02*
X035460Y018289D01*
X035500Y018130D02*
X036545Y018130D01*
X036545Y017972D02*
X036030Y017972D01*
X035941Y017813D02*
X036545Y017813D01*
X036545Y017655D02*
X035782Y017655D01*
X035864Y017496D02*
X036545Y017496D01*
X036545Y017338D02*
X036010Y017338D01*
X036010Y017179D02*
X036545Y017179D01*
X036545Y017021D02*
X036010Y017021D01*
X035962Y016862D02*
X036545Y016862D01*
X036545Y016704D02*
X035803Y016704D01*
X035815Y016545D02*
X036545Y016545D01*
X036545Y016387D02*
X035973Y016387D01*
X036010Y016228D02*
X036545Y016228D01*
X036545Y016070D02*
X036010Y016070D01*
X036010Y015911D02*
X036545Y015911D01*
X036545Y015753D02*
X035852Y015753D01*
X035766Y015594D02*
X036545Y015594D01*
X036545Y015436D02*
X035924Y015436D01*
X036010Y015277D02*
X036545Y015277D01*
X036545Y015119D02*
X036010Y015119D01*
X036010Y014960D02*
X036545Y014960D01*
X036545Y014802D02*
X035901Y014802D01*
X035743Y014643D02*
X036545Y014643D01*
X036545Y014485D02*
X035875Y014485D01*
X036010Y014326D02*
X036545Y014326D01*
X036545Y014168D02*
X036010Y014168D01*
X036010Y014009D02*
X036545Y014009D01*
X036545Y013851D02*
X036099Y013851D01*
X036257Y013692D02*
X036545Y013692D01*
X036545Y013534D02*
X036416Y013534D01*
X036140Y013131D02*
X036010Y013261D01*
X036010Y012910D01*
X035730Y012630D01*
X036010Y012350D01*
X036010Y011910D01*
X035730Y011630D01*
X036010Y011350D01*
X036010Y010910D01*
X035744Y010644D01*
X036030Y010358D01*
X036030Y010150D01*
X035500Y010150D01*
X035500Y010110D01*
X036030Y010110D01*
X036030Y009902D01*
X035744Y009616D01*
X036010Y009350D01*
X036010Y008910D01*
X035730Y008630D01*
X036010Y008350D01*
X036010Y007910D01*
X035730Y007630D01*
X036010Y007350D01*
X036010Y006999D01*
X036140Y007129D01*
X036140Y013131D01*
X036140Y013058D02*
X036010Y013058D01*
X036010Y013217D02*
X036054Y013217D01*
X035999Y012900D02*
X036140Y012900D01*
X036140Y012741D02*
X035841Y012741D01*
X035777Y012583D02*
X036140Y012583D01*
X036140Y012424D02*
X035936Y012424D01*
X036010Y012266D02*
X036140Y012266D01*
X036140Y012107D02*
X036010Y012107D01*
X036010Y011949D02*
X036140Y011949D01*
X036140Y011790D02*
X035890Y011790D01*
X035731Y011632D02*
X036140Y011632D01*
X036140Y011473D02*
X035887Y011473D01*
X036010Y011315D02*
X036140Y011315D01*
X036140Y011156D02*
X036010Y011156D01*
X036010Y010998D02*
X036140Y010998D01*
X036140Y010839D02*
X035939Y010839D01*
X035780Y010681D02*
X036140Y010681D01*
X036140Y010522D02*
X035866Y010522D01*
X036024Y010364D02*
X036140Y010364D01*
X036140Y010205D02*
X036030Y010205D01*
X036030Y010047D02*
X036140Y010047D01*
X036140Y009888D02*
X036016Y009888D01*
X036140Y009730D02*
X035857Y009730D01*
X035789Y009571D02*
X036140Y009571D01*
X036140Y009413D02*
X035947Y009413D01*
X036010Y009254D02*
X036140Y009254D01*
X036140Y009096D02*
X036010Y009096D01*
X036010Y008937D02*
X036140Y008937D01*
X036140Y008779D02*
X035878Y008779D01*
X035740Y008620D02*
X036140Y008620D01*
X036140Y008462D02*
X035898Y008462D01*
X036010Y008303D02*
X036140Y008303D01*
X036140Y008145D02*
X036010Y008145D01*
X036010Y007986D02*
X036140Y007986D01*
X036140Y007828D02*
X035927Y007828D01*
X035769Y007669D02*
X036140Y007669D01*
X036140Y007511D02*
X035849Y007511D01*
X036008Y007352D02*
X036140Y007352D01*
X036140Y007194D02*
X036010Y007194D01*
X036010Y007035D02*
X036046Y007035D01*
X036380Y007030D02*
X036380Y013230D01*
X035480Y014130D01*
X034480Y014130D02*
X014430Y014130D01*
X013580Y013280D01*
X013580Y012780D01*
X012230Y012780D01*
X011813Y012741D02*
X011647Y012741D01*
X011632Y012900D02*
X011828Y012900D01*
X011918Y013058D02*
X011542Y013058D01*
X010918Y013058D02*
X004041Y013058D01*
X003883Y013217D02*
X013340Y013217D01*
X013340Y013058D02*
X012542Y013058D01*
X011860Y012583D02*
X011767Y012583D01*
X011925Y012424D02*
X011998Y012424D01*
X012084Y012266D02*
X014987Y012266D01*
X015273Y012266D02*
X017934Y012266D01*
X017919Y012270D02*
X018001Y012244D01*
X018087Y012230D01*
X018121Y012230D01*
X018121Y012771D01*
X018139Y012771D01*
X018139Y012789D01*
X018680Y012789D01*
X018680Y012823D01*
X018666Y012909D01*
X018640Y012991D01*
X018600Y013068D01*
X018550Y013138D01*
X018488Y013200D01*
X018418Y013250D01*
X018341Y013290D01*
X018259Y013316D01*
X018173Y013330D01*
X018139Y013330D01*
X018139Y012789D01*
X018121Y012789D01*
X018121Y013330D01*
X018087Y013330D01*
X018001Y013316D01*
X017919Y013290D01*
X017842Y013250D01*
X017772Y013200D01*
X017710Y013138D01*
X017660Y013068D01*
X017620Y012991D01*
X017594Y012909D01*
X017580Y012823D01*
X017580Y012789D01*
X018121Y012789D01*
X018121Y012771D01*
X017580Y012771D01*
X017580Y012737D01*
X017594Y012651D01*
X017620Y012569D01*
X017660Y012492D01*
X017710Y012422D01*
X017772Y012360D01*
X017842Y012310D01*
X017919Y012270D01*
X018121Y012266D02*
X018139Y012266D01*
X018139Y012230D02*
X018173Y012230D01*
X018259Y012244D01*
X018341Y012270D01*
X018418Y012310D01*
X018488Y012360D01*
X018550Y012422D01*
X018600Y012492D01*
X018640Y012569D01*
X018666Y012651D01*
X018680Y012737D01*
X018680Y012771D01*
X018139Y012771D01*
X018139Y012230D01*
X018326Y012266D02*
X021640Y012266D01*
X021396Y012424D02*
X018551Y012424D01*
X018644Y012583D02*
X021319Y012583D01*
X021313Y012741D02*
X018680Y012741D01*
X018668Y012900D02*
X021369Y012900D01*
X021552Y013058D02*
X018606Y013058D01*
X018465Y013217D02*
X024227Y013217D01*
X024073Y013058D02*
X022908Y013058D01*
X022552Y013058D02*
X021908Y013058D01*
X022091Y012900D02*
X022369Y012900D01*
X022313Y012741D02*
X022147Y012741D01*
X022167Y012583D02*
X022319Y012583D01*
X022325Y012424D02*
X022396Y012424D01*
X022484Y012266D02*
X022640Y012266D01*
X022642Y012107D02*
X033930Y012107D01*
X033930Y011949D02*
X029051Y011949D01*
X029209Y011790D02*
X034042Y011790D01*
X034201Y011632D02*
X029368Y011632D01*
X029526Y011473D02*
X030501Y011473D01*
X030422Y011315D02*
X029685Y011315D01*
X029843Y011156D02*
X030422Y011156D01*
X030422Y010998D02*
X030002Y010998D01*
X030160Y010839D02*
X030448Y010839D01*
X030319Y010681D02*
X034180Y010681D01*
X034122Y010522D02*
X030477Y010522D01*
X030636Y010364D02*
X031372Y010364D01*
X031372Y010205D02*
X030794Y010205D01*
X030953Y010047D02*
X031372Y010047D01*
X031372Y009888D02*
X031111Y009888D01*
X031270Y009730D02*
X034131Y009730D01*
X034171Y009571D02*
X031428Y009571D01*
X031587Y009413D02*
X032390Y009413D01*
X032372Y009254D02*
X031745Y009254D01*
X031904Y009096D02*
X032372Y009096D01*
X032372Y008937D02*
X032062Y008937D01*
X032221Y008779D02*
X032459Y008779D01*
X032379Y008620D02*
X034192Y008620D01*
X034082Y008779D02*
X033001Y008779D01*
X032730Y009130D02*
X034480Y009130D01*
X034878Y008779D02*
X035082Y008779D01*
X034980Y008880D02*
X035230Y008630D01*
X034994Y008394D01*
X034744Y008644D01*
X034980Y008880D01*
X034980Y008630D02*
X034480Y008130D01*
X034460Y008145D02*
X032855Y008145D01*
X032696Y008303D02*
X033930Y008303D01*
X034034Y008462D02*
X032538Y008462D01*
X032176Y008145D02*
X027484Y008145D01*
X027642Y008303D02*
X032018Y008303D01*
X031859Y008462D02*
X027801Y008462D01*
X027959Y008620D02*
X031701Y008620D01*
X031542Y008779D02*
X030451Y008779D01*
X030538Y008937D02*
X031384Y008937D01*
X031225Y009096D02*
X030538Y009096D01*
X030538Y009254D02*
X031067Y009254D01*
X030908Y009413D02*
X030520Y009413D01*
X030750Y009571D02*
X027910Y009571D01*
X027752Y009413D02*
X029840Y009413D01*
X030180Y009130D02*
X028130Y009130D01*
X027030Y008030D01*
X027030Y003780D01*
X027389Y003390D02*
X027671Y003390D01*
X027552Y003548D02*
X027508Y003548D01*
X027503Y004024D02*
X027557Y004024D01*
X027682Y004182D02*
X027378Y004182D01*
X027270Y004341D02*
X027790Y004341D01*
X027820Y004499D02*
X027270Y004499D01*
X027270Y004658D02*
X027968Y004658D01*
X028127Y004816D02*
X027270Y004816D01*
X027270Y004975D02*
X028285Y004975D01*
X028480Y004830D02*
X028030Y004380D01*
X028030Y003780D01*
X028519Y003986D02*
X028479Y004080D01*
X028330Y004229D01*
X028270Y004254D01*
X028270Y004281D01*
X028579Y004590D01*
X028931Y004590D01*
X029226Y004295D01*
X029159Y004316D01*
X029073Y004330D01*
X029050Y004330D01*
X029050Y003800D01*
X029010Y003800D01*
X029010Y004330D01*
X028987Y004330D01*
X028901Y004316D01*
X028819Y004290D01*
X028742Y004250D01*
X028672Y004200D01*
X028610Y004138D01*
X028560Y004068D01*
X028520Y003991D01*
X028519Y003986D01*
X028503Y004024D02*
X028537Y004024D01*
X028654Y004182D02*
X028378Y004182D01*
X028330Y004341D02*
X029180Y004341D01*
X029050Y004182D02*
X029010Y004182D01*
X029010Y004024D02*
X029050Y004024D01*
X029050Y003865D02*
X029010Y003865D01*
X029050Y003760D02*
X029580Y003760D01*
X029580Y003737D01*
X029566Y003651D01*
X029540Y003569D01*
X029500Y003492D01*
X029450Y003422D01*
X029388Y003360D01*
X029318Y003310D01*
X029241Y003270D01*
X029159Y003244D01*
X029073Y003230D01*
X029050Y003230D01*
X029050Y003760D01*
X029050Y003707D02*
X029010Y003707D01*
X029010Y003548D02*
X029050Y003548D01*
X029050Y003390D02*
X029010Y003390D01*
X029010Y003231D02*
X029050Y003231D01*
X029080Y003231D02*
X036545Y003231D01*
X036545Y003073D02*
X002510Y003073D01*
X002510Y003231D02*
X011380Y003231D01*
X011387Y003230D02*
X011421Y003230D01*
X011421Y003771D01*
X011439Y003771D01*
X011439Y003789D01*
X011980Y003789D01*
X011980Y003823D01*
X011966Y003909D01*
X011940Y003991D01*
X011900Y004068D01*
X011850Y004138D01*
X011788Y004200D01*
X011718Y004250D01*
X011641Y004290D01*
X011559Y004316D01*
X011473Y004330D01*
X011439Y004330D01*
X011439Y003789D01*
X011421Y003789D01*
X011421Y004330D01*
X011387Y004330D01*
X011301Y004316D01*
X011219Y004290D01*
X011142Y004250D01*
X011072Y004200D01*
X011010Y004138D01*
X010960Y004068D01*
X010920Y003991D01*
X010894Y003909D01*
X010880Y003823D01*
X010880Y003789D01*
X011421Y003789D01*
X011421Y003771D01*
X010880Y003771D01*
X010880Y003737D01*
X010894Y003651D01*
X010920Y003569D01*
X010960Y003492D01*
X011010Y003422D01*
X011072Y003360D01*
X011142Y003310D01*
X011219Y003270D01*
X011301Y003244D01*
X011387Y003230D01*
X011421Y003231D02*
X011439Y003231D01*
X011439Y003230D02*
X011473Y003230D01*
X011559Y003244D01*
X011641Y003270D01*
X011718Y003310D01*
X011788Y003360D01*
X011850Y003422D01*
X011900Y003492D01*
X011940Y003569D01*
X011966Y003651D01*
X011980Y003737D01*
X011980Y003771D01*
X011439Y003771D01*
X011439Y003230D01*
X011480Y003231D02*
X028980Y003231D01*
X028643Y003390D02*
X028389Y003390D01*
X028508Y003548D02*
X028531Y003548D01*
X029417Y003390D02*
X036545Y003390D01*
X036545Y003548D02*
X033197Y003548D01*
X033130Y003780D02*
X030080Y003780D01*
X029030Y004830D01*
X028480Y004830D01*
X028488Y004499D02*
X029022Y004499D01*
X029383Y004816D02*
X030311Y004816D01*
X030445Y004662D02*
X030107Y005051D01*
X030107Y005051D01*
X029893Y005520D01*
X029893Y005520D01*
X029820Y006030D01*
X029820Y006030D01*
X029893Y006540D01*
X030107Y007009D01*
X030445Y007398D01*
X030445Y007398D01*
X030878Y007676D01*
X030878Y007676D01*
X031372Y007822D01*
X031888Y007822D01*
X032382Y007676D01*
X032382Y007676D01*
X032815Y007398D01*
X032815Y007398D01*
X033153Y007009D01*
X033153Y007009D01*
X033367Y006540D01*
X033367Y006540D01*
X033440Y006030D01*
X033367Y005520D01*
X033153Y005051D01*
X033153Y005051D01*
X032815Y004662D01*
X032815Y004662D01*
X032382Y004384D01*
X032382Y004384D01*
X031888Y004238D01*
X031372Y004238D01*
X030878Y004384D01*
X030878Y004384D01*
X030445Y004662D01*
X030445Y004662D01*
X030452Y004658D02*
X029542Y004658D01*
X029700Y004499D02*
X030698Y004499D01*
X031025Y004341D02*
X029859Y004341D01*
X030017Y004182D02*
X033193Y004182D01*
X033351Y004341D02*
X032235Y004341D01*
X032562Y004499D02*
X033510Y004499D01*
X033668Y004658D02*
X032808Y004658D01*
X032815Y004662D02*
X032815Y004662D01*
X032949Y004816D02*
X033827Y004816D01*
X033985Y004975D02*
X033086Y004975D01*
X033190Y005133D02*
X034144Y005133D01*
X034240Y005292D02*
X033262Y005292D01*
X033335Y005450D02*
X034240Y005450D01*
X034240Y005609D02*
X033379Y005609D01*
X033367Y005520D02*
X033367Y005520D01*
X033402Y005767D02*
X034093Y005767D01*
X033950Y005926D02*
X033425Y005926D01*
X033432Y006084D02*
X033950Y006084D01*
X033950Y006243D02*
X033409Y006243D01*
X033387Y006401D02*
X034001Y006401D01*
X034160Y006560D02*
X033358Y006560D01*
X033285Y006718D02*
X034142Y006718D01*
X033984Y006877D02*
X033213Y006877D01*
X033286Y007035D02*
X033130Y007035D01*
X033127Y007194D02*
X032992Y007194D01*
X032969Y007352D02*
X032855Y007352D01*
X032810Y007511D02*
X032640Y007511D01*
X032652Y007669D02*
X032393Y007669D01*
X032493Y007828D02*
X027270Y007828D01*
X027270Y007669D02*
X030867Y007669D01*
X030620Y007511D02*
X027270Y007511D01*
X027270Y007352D02*
X030405Y007352D01*
X030268Y007194D02*
X027270Y007194D01*
X027270Y007035D02*
X030130Y007035D01*
X030047Y006877D02*
X027270Y006877D01*
X027270Y006718D02*
X029975Y006718D01*
X029902Y006560D02*
X027270Y006560D01*
X027270Y006401D02*
X029873Y006401D01*
X029851Y006243D02*
X027270Y006243D01*
X027270Y006084D02*
X029828Y006084D01*
X029835Y005926D02*
X027270Y005926D01*
X027270Y005767D02*
X029858Y005767D01*
X029881Y005609D02*
X027270Y005609D01*
X027270Y005450D02*
X029925Y005450D01*
X029998Y005292D02*
X027270Y005292D01*
X027270Y005133D02*
X030070Y005133D01*
X030174Y004975D02*
X029225Y004975D01*
X029573Y003865D02*
X029656Y003865D01*
X029575Y003707D02*
X029814Y003707D01*
X030013Y003548D02*
X029529Y003548D01*
X030176Y004024D02*
X033034Y004024D01*
X033130Y003780D02*
X034480Y005130D01*
X034480Y006130D01*
X034480Y007130D01*
X033530Y007130D01*
X028830Y011830D01*
X022580Y011830D01*
X020330Y011830D01*
X019130Y010630D01*
X018643Y010839D02*
X017478Y010839D01*
X017320Y010681D02*
X018600Y010681D01*
X018601Y010522D02*
X017220Y010522D01*
X017220Y010364D02*
X018667Y010364D01*
X018805Y010205D02*
X017220Y010205D01*
X017220Y010047D02*
X021890Y010047D01*
X021890Y010156D02*
X021890Y009604D01*
X021830Y009579D01*
X021681Y009430D01*
X021656Y009370D01*
X020632Y009370D01*
X020544Y009333D01*
X020477Y009266D01*
X018395Y007185D01*
X018336Y007328D01*
X018218Y007446D01*
X018064Y007510D01*
X017896Y007510D01*
X017742Y007446D01*
X017624Y007328D01*
X017560Y007174D01*
X017560Y006486D01*
X017624Y006332D01*
X017742Y006214D01*
X017896Y006150D01*
X018064Y006150D01*
X018218Y006214D01*
X018336Y006332D01*
X018400Y006486D01*
X018400Y006590D01*
X018428Y006590D01*
X018516Y006627D01*
X018583Y006694D01*
X020779Y008890D01*
X021656Y008890D01*
X021681Y008830D01*
X021830Y008681D01*
X021952Y008630D01*
X021830Y008579D01*
X021681Y008430D01*
X021600Y008235D01*
X021600Y008025D01*
X021681Y007830D01*
X021830Y007681D01*
X021924Y007641D01*
X021919Y007640D01*
X021842Y007600D01*
X021772Y007550D01*
X021710Y007488D01*
X021660Y007418D01*
X021620Y007341D01*
X021594Y007259D01*
X021580Y007173D01*
X021580Y007130D01*
X022130Y007130D01*
X022680Y007130D01*
X022680Y007173D01*
X022666Y007259D01*
X022640Y007341D01*
X022600Y007418D01*
X022550Y007488D01*
X022488Y007550D01*
X022418Y007600D01*
X022341Y007640D01*
X022336Y007641D01*
X022430Y007681D01*
X022579Y007830D01*
X022604Y007890D01*
X023956Y007890D01*
X023981Y007830D01*
X024130Y007681D01*
X024325Y007600D01*
X024535Y007600D01*
X024730Y007681D01*
X024879Y007830D01*
X024960Y008025D01*
X024960Y008235D01*
X024879Y008430D01*
X024730Y008579D01*
X024535Y008660D01*
X024325Y008660D01*
X024130Y008579D01*
X023981Y008430D01*
X023956Y008370D01*
X022604Y008370D01*
X022579Y008430D01*
X022430Y008579D01*
X022308Y008630D01*
X022430Y008681D01*
X022579Y008830D01*
X022660Y009025D01*
X022660Y009235D01*
X022579Y009430D01*
X022430Y009579D01*
X022370Y009604D01*
X022370Y010156D01*
X022430Y010181D01*
X022579Y010330D01*
X022660Y010525D01*
X022660Y010735D01*
X022579Y010930D01*
X022430Y011079D01*
X022235Y011160D01*
X022025Y011160D01*
X021830Y011079D01*
X021681Y010930D01*
X021600Y010735D01*
X021600Y010525D01*
X021681Y010330D01*
X021830Y010181D01*
X021890Y010156D01*
X021805Y010205D02*
X019455Y010205D01*
X019593Y010364D02*
X021667Y010364D01*
X021601Y010522D02*
X019659Y010522D01*
X019660Y010681D02*
X021600Y010681D01*
X021643Y010839D02*
X019678Y010839D01*
X019837Y010998D02*
X021748Y010998D01*
X022015Y011156D02*
X019995Y011156D01*
X020154Y011315D02*
X023933Y011315D01*
X023900Y011156D02*
X022245Y011156D01*
X022512Y010998D02*
X023911Y010998D01*
X023977Y010839D02*
X022617Y010839D01*
X022660Y010681D02*
X024130Y010681D01*
X024730Y010681D02*
X029640Y010681D01*
X029482Y010839D02*
X028762Y010839D01*
X028788Y010998D02*
X029323Y010998D01*
X029165Y011156D02*
X028788Y011156D01*
X028788Y011315D02*
X029006Y011315D01*
X028848Y011473D02*
X028709Y011473D01*
X028151Y011473D02*
X024837Y011473D01*
X024430Y011130D02*
X028430Y011130D01*
X028098Y010839D02*
X024883Y010839D01*
X024023Y011473D02*
X020312Y011473D01*
X020330Y011830D02*
X018130Y011830D01*
X016980Y010680D01*
X016980Y006830D01*
X016980Y003780D01*
X017339Y003390D02*
X017621Y003390D01*
X017502Y003548D02*
X017458Y003548D01*
X017453Y004024D02*
X017507Y004024D01*
X017632Y004182D02*
X017328Y004182D01*
X017220Y004341D02*
X025790Y004341D01*
X025790Y004499D02*
X017220Y004499D01*
X017220Y004658D02*
X025790Y004658D01*
X025790Y004816D02*
X017220Y004816D01*
X017220Y004975D02*
X025790Y004975D01*
X025790Y005133D02*
X017220Y005133D01*
X017220Y005292D02*
X025790Y005292D01*
X025790Y005450D02*
X017220Y005450D01*
X017220Y005609D02*
X025790Y005609D01*
X025790Y005767D02*
X017220Y005767D01*
X017220Y005926D02*
X025790Y005926D01*
X025790Y006084D02*
X017220Y006084D01*
X017246Y006243D02*
X017714Y006243D01*
X017595Y006401D02*
X017365Y006401D01*
X017400Y006560D02*
X017560Y006560D01*
X017560Y006718D02*
X017400Y006718D01*
X017400Y006877D02*
X017560Y006877D01*
X017560Y007035D02*
X017400Y007035D01*
X017392Y007194D02*
X017568Y007194D01*
X017648Y007352D02*
X017312Y007352D01*
X017220Y007511D02*
X018721Y007511D01*
X018880Y007669D02*
X017220Y007669D01*
X017220Y007828D02*
X019038Y007828D01*
X019197Y007986D02*
X017220Y007986D01*
X017220Y008145D02*
X019355Y008145D01*
X019514Y008303D02*
X017220Y008303D01*
X017220Y008462D02*
X019672Y008462D01*
X019831Y008620D02*
X017220Y008620D01*
X017220Y008779D02*
X019989Y008779D01*
X020148Y008937D02*
X017220Y008937D01*
X017220Y009096D02*
X020306Y009096D01*
X020465Y009254D02*
X017220Y009254D01*
X017220Y009413D02*
X021673Y009413D01*
X021821Y009571D02*
X017220Y009571D01*
X017220Y009730D02*
X021890Y009730D01*
X021890Y009888D02*
X017220Y009888D01*
X016740Y009888D02*
X002510Y009888D01*
X002510Y009730D02*
X016740Y009730D01*
X016740Y009571D02*
X002510Y009571D01*
X002510Y009413D02*
X016740Y009413D01*
X016740Y009254D02*
X002510Y009254D01*
X002510Y009096D02*
X016740Y009096D01*
X016740Y008937D02*
X002510Y008937D01*
X002510Y008779D02*
X016740Y008779D01*
X016740Y008620D02*
X002510Y008620D01*
X002510Y008462D02*
X016740Y008462D01*
X016740Y008303D02*
X002510Y008303D01*
X002510Y008145D02*
X016740Y008145D01*
X016740Y007986D02*
X002510Y007986D01*
X002510Y007828D02*
X016740Y007828D01*
X016740Y007669D02*
X008093Y007669D01*
X008082Y007676D02*
X008082Y007676D01*
X007588Y007822D01*
X007072Y007822D01*
X006578Y007676D01*
X006145Y007398D01*
X006145Y007398D01*
X005807Y007009D01*
X005807Y007009D01*
X005593Y006540D01*
X005520Y006030D01*
X005520Y006030D01*
X005593Y005520D01*
X005807Y005051D01*
X006145Y004662D01*
X006578Y004384D01*
X006578Y004384D01*
X007072Y004238D01*
X007588Y004238D01*
X008082Y004384D01*
X008515Y004662D01*
X008515Y004662D01*
X008853Y005051D01*
X008853Y005051D01*
X009067Y005520D01*
X009067Y005520D01*
X009140Y006030D01*
X009067Y006540D01*
X008853Y007009D01*
X008515Y007398D01*
X008082Y007676D01*
X008340Y007511D02*
X016740Y007511D01*
X016648Y007352D02*
X016312Y007352D01*
X016392Y007194D02*
X016568Y007194D01*
X016560Y007035D02*
X016400Y007035D01*
X016400Y006877D02*
X016560Y006877D01*
X016560Y006718D02*
X016400Y006718D01*
X016400Y006560D02*
X016560Y006560D01*
X016595Y006401D02*
X016365Y006401D01*
X016246Y006243D02*
X016714Y006243D01*
X016740Y006084D02*
X016220Y006084D01*
X016220Y005926D02*
X016740Y005926D01*
X016740Y005767D02*
X016220Y005767D01*
X016220Y005609D02*
X016740Y005609D01*
X016740Y005450D02*
X016220Y005450D01*
X016220Y005292D02*
X016740Y005292D01*
X016740Y005133D02*
X016220Y005133D01*
X016220Y004975D02*
X016740Y004975D01*
X016740Y004816D02*
X016220Y004816D01*
X016220Y004658D02*
X016740Y004658D01*
X016740Y004499D02*
X016220Y004499D01*
X016220Y004341D02*
X016740Y004341D01*
X016632Y004182D02*
X016328Y004182D01*
X016453Y004024D02*
X016507Y004024D01*
X016502Y003548D02*
X016458Y003548D01*
X016339Y003390D02*
X016621Y003390D01*
X015980Y003780D02*
X014430Y003780D01*
X014789Y003390D02*
X015621Y003390D01*
X015980Y003780D02*
X015980Y006830D01*
X015560Y006877D02*
X008913Y006877D01*
X008853Y007009D02*
X008853Y007009D01*
X008830Y007035D02*
X015560Y007035D01*
X015568Y007194D02*
X008692Y007194D01*
X008555Y007352D02*
X015648Y007352D01*
X015560Y006718D02*
X008985Y006718D01*
X009058Y006560D02*
X015560Y006560D01*
X015595Y006401D02*
X009087Y006401D01*
X009067Y006540D02*
X009067Y006540D01*
X009109Y006243D02*
X015714Y006243D01*
X015740Y006084D02*
X009132Y006084D01*
X009125Y005926D02*
X015740Y005926D01*
X015740Y005767D02*
X009102Y005767D01*
X009079Y005609D02*
X015740Y005609D01*
X015740Y005450D02*
X009035Y005450D01*
X008962Y005292D02*
X015740Y005292D01*
X015740Y005133D02*
X008890Y005133D01*
X008786Y004975D02*
X015740Y004975D01*
X015740Y004816D02*
X008649Y004816D01*
X008515Y004662D02*
X008515Y004662D01*
X008508Y004658D02*
X015740Y004658D01*
X015740Y004499D02*
X008262Y004499D01*
X008082Y004384D02*
X008082Y004384D01*
X007935Y004341D02*
X015740Y004341D01*
X015632Y004182D02*
X014778Y004182D01*
X014903Y004024D02*
X015507Y004024D01*
X014082Y004182D02*
X011806Y004182D01*
X011923Y004024D02*
X013957Y004024D01*
X013900Y003865D02*
X011973Y003865D01*
X011975Y003707D02*
X013900Y003707D01*
X013952Y003548D02*
X011929Y003548D01*
X011817Y003390D02*
X014071Y003390D01*
X011439Y003390D02*
X011421Y003390D01*
X011421Y003548D02*
X011439Y003548D01*
X011439Y003707D02*
X011421Y003707D01*
X011421Y003865D02*
X011439Y003865D01*
X011439Y004024D02*
X011421Y004024D01*
X011421Y004182D02*
X011439Y004182D01*
X011054Y004182D02*
X002510Y004182D01*
X002510Y004024D02*
X010937Y004024D01*
X010887Y003865D02*
X002510Y003865D01*
X002510Y003707D02*
X010885Y003707D01*
X010931Y003548D02*
X002510Y003548D01*
X002510Y003390D02*
X011043Y003390D01*
X006725Y004341D02*
X002510Y004341D01*
X002510Y004499D02*
X006398Y004499D01*
X006152Y004658D02*
X002510Y004658D01*
X002510Y004816D02*
X006011Y004816D01*
X006145Y004662D02*
X006145Y004662D01*
X005874Y004975D02*
X002510Y004975D01*
X002510Y005133D02*
X005770Y005133D01*
X005807Y005051D02*
X005807Y005051D01*
X005698Y005292D02*
X002510Y005292D01*
X002510Y005450D02*
X005625Y005450D01*
X005593Y005520D02*
X005593Y005520D01*
X005581Y005609D02*
X002510Y005609D01*
X002510Y005767D02*
X005558Y005767D01*
X005535Y005926D02*
X002510Y005926D01*
X002510Y006084D02*
X005528Y006084D01*
X005551Y006243D02*
X002510Y006243D01*
X002510Y006401D02*
X005573Y006401D01*
X005593Y006540D02*
X005593Y006540D01*
X005602Y006560D02*
X002510Y006560D01*
X002510Y006718D02*
X005675Y006718D01*
X005747Y006877D02*
X002510Y006877D01*
X002510Y007035D02*
X005830Y007035D01*
X005968Y007194D02*
X002510Y007194D01*
X002510Y007352D02*
X006105Y007352D01*
X006145Y007398D02*
X006145Y007398D01*
X006320Y007511D02*
X002510Y007511D01*
X002510Y007669D02*
X006567Y007669D01*
X006578Y007676D02*
X006578Y007676D01*
X008515Y007398D02*
X008515Y007398D01*
X006080Y006030D02*
X006082Y006100D01*
X006088Y006170D01*
X006098Y006239D01*
X006111Y006308D01*
X006129Y006376D01*
X006150Y006443D01*
X006175Y006508D01*
X006204Y006572D01*
X006236Y006635D01*
X006272Y006695D01*
X006311Y006753D01*
X006353Y006809D01*
X006398Y006863D01*
X006446Y006914D01*
X006497Y006962D01*
X006551Y007007D01*
X006607Y007049D01*
X006665Y007088D01*
X006725Y007124D01*
X006788Y007156D01*
X006852Y007185D01*
X006917Y007210D01*
X006984Y007231D01*
X007052Y007249D01*
X007121Y007262D01*
X007190Y007272D01*
X007260Y007278D01*
X007330Y007280D01*
X007400Y007278D01*
X007470Y007272D01*
X007539Y007262D01*
X007608Y007249D01*
X007676Y007231D01*
X007743Y007210D01*
X007808Y007185D01*
X007872Y007156D01*
X007935Y007124D01*
X007995Y007088D01*
X008053Y007049D01*
X008109Y007007D01*
X008163Y006962D01*
X008214Y006914D01*
X008262Y006863D01*
X008307Y006809D01*
X008349Y006753D01*
X008388Y006695D01*
X008424Y006635D01*
X008456Y006572D01*
X008485Y006508D01*
X008510Y006443D01*
X008531Y006376D01*
X008549Y006308D01*
X008562Y006239D01*
X008572Y006170D01*
X008578Y006100D01*
X008580Y006030D01*
X008578Y005960D01*
X008572Y005890D01*
X008562Y005821D01*
X008549Y005752D01*
X008531Y005684D01*
X008510Y005617D01*
X008485Y005552D01*
X008456Y005488D01*
X008424Y005425D01*
X008388Y005365D01*
X008349Y005307D01*
X008307Y005251D01*
X008262Y005197D01*
X008214Y005146D01*
X008163Y005098D01*
X008109Y005053D01*
X008053Y005011D01*
X007995Y004972D01*
X007935Y004936D01*
X007872Y004904D01*
X007808Y004875D01*
X007743Y004850D01*
X007676Y004829D01*
X007608Y004811D01*
X007539Y004798D01*
X007470Y004788D01*
X007400Y004782D01*
X007330Y004780D01*
X007260Y004782D01*
X007190Y004788D01*
X007121Y004798D01*
X007052Y004811D01*
X006984Y004829D01*
X006917Y004850D01*
X006852Y004875D01*
X006788Y004904D01*
X006725Y004936D01*
X006665Y004972D01*
X006607Y005011D01*
X006551Y005053D01*
X006497Y005098D01*
X006446Y005146D01*
X006398Y005197D01*
X006353Y005251D01*
X006311Y005307D01*
X006272Y005365D01*
X006236Y005425D01*
X006204Y005488D01*
X006175Y005552D01*
X006150Y005617D01*
X006129Y005684D01*
X006111Y005752D01*
X006098Y005821D01*
X006088Y005890D01*
X006082Y005960D01*
X006080Y006030D01*
X002510Y002914D02*
X036545Y002914D01*
X036545Y003707D02*
X033396Y003707D01*
X033554Y003865D02*
X036545Y003865D01*
X036545Y004024D02*
X033713Y004024D01*
X033871Y004182D02*
X036545Y004182D01*
X036545Y004341D02*
X034030Y004341D01*
X034188Y004499D02*
X036545Y004499D01*
X036545Y004658D02*
X034347Y004658D01*
X034505Y004816D02*
X036545Y004816D01*
X036545Y004975D02*
X034664Y004975D01*
X034720Y005133D02*
X036545Y005133D01*
X036545Y005292D02*
X034720Y005292D01*
X034720Y005450D02*
X036545Y005450D01*
X036545Y005609D02*
X035708Y005609D01*
X035867Y005767D02*
X036545Y005767D01*
X036545Y005926D02*
X036010Y005926D01*
X036010Y006084D02*
X036545Y006084D01*
X036545Y006243D02*
X036010Y006243D01*
X036090Y006401D02*
X036545Y006401D01*
X036545Y006560D02*
X036249Y006560D01*
X036407Y006718D02*
X036545Y006718D01*
X036380Y007030D02*
X035480Y006130D01*
X035093Y005767D02*
X034867Y005767D01*
X034720Y005609D02*
X035252Y005609D01*
X034111Y007511D02*
X033489Y007511D01*
X033330Y007669D02*
X034163Y007669D01*
X034005Y007828D02*
X033172Y007828D01*
X033013Y007986D02*
X033930Y007986D01*
X034768Y008620D02*
X035220Y008620D01*
X035062Y008462D02*
X034926Y008462D01*
X034980Y008630D02*
X034980Y009630D01*
X035480Y010130D01*
X035103Y009730D02*
X034829Y009730D01*
X034730Y009630D02*
X034966Y009866D01*
X035216Y009616D01*
X034980Y009380D01*
X034730Y009630D01*
X034789Y009571D02*
X035171Y009571D01*
X035013Y009413D02*
X034947Y009413D01*
X034013Y009413D02*
X033070Y009413D01*
X033972Y009888D02*
X032088Y009888D01*
X031730Y010130D02*
X034480Y010130D01*
X034021Y010839D02*
X031112Y010839D01*
X030780Y011130D02*
X034480Y011130D01*
X034073Y011473D02*
X031059Y011473D01*
X029800Y012322D02*
X029850Y012392D01*
X029890Y012469D01*
X029916Y012551D01*
X029930Y012637D01*
X029930Y012671D01*
X029389Y012671D01*
X029389Y012689D01*
X029930Y012689D01*
X029930Y012723D01*
X029916Y012809D01*
X029890Y012891D01*
X029850Y012968D01*
X029800Y013038D01*
X029738Y013100D01*
X029668Y013150D01*
X029591Y013190D01*
X029509Y013216D01*
X029423Y013230D01*
X029389Y013230D01*
X029389Y012689D01*
X029371Y012689D01*
X029371Y013230D01*
X029337Y013230D01*
X029251Y013216D01*
X029169Y013190D01*
X029092Y013150D01*
X029022Y013100D01*
X028960Y013038D01*
X028910Y012968D01*
X028870Y012891D01*
X028844Y012809D01*
X028830Y012723D01*
X028830Y012689D01*
X029371Y012689D01*
X029371Y012671D01*
X029389Y012671D01*
X029389Y012130D01*
X029423Y012130D01*
X029509Y012144D01*
X029591Y012170D01*
X029668Y012210D01*
X029738Y012260D01*
X029800Y012322D01*
X029743Y012266D02*
X033930Y012266D01*
X033996Y012424D02*
X029867Y012424D01*
X029921Y012583D02*
X034155Y012583D01*
X034119Y012741D02*
X029927Y012741D01*
X029885Y012900D02*
X032309Y012900D01*
X032380Y013130D02*
X034480Y013130D01*
X034134Y013534D02*
X032316Y013534D01*
X032157Y013692D02*
X034168Y013692D01*
X034010Y013851D02*
X014490Y013851D01*
X014331Y013692D02*
X024703Y013692D01*
X024544Y013534D02*
X014173Y013534D01*
X014014Y013375D02*
X024386Y013375D01*
X024747Y013058D02*
X026008Y013058D01*
X026752Y013058D02*
X028980Y013058D01*
X028875Y012900D02*
X026863Y012900D01*
X026910Y012741D02*
X028833Y012741D01*
X028830Y012671D02*
X028830Y012637D01*
X028844Y012551D01*
X028870Y012469D01*
X028910Y012392D01*
X028960Y012322D01*
X029022Y012260D01*
X029092Y012210D01*
X029169Y012170D01*
X029251Y012144D01*
X029337Y012130D01*
X029371Y012130D01*
X029371Y012671D01*
X028830Y012671D01*
X028839Y012583D02*
X026910Y012583D01*
X026848Y012424D02*
X028893Y012424D01*
X029017Y012266D02*
X026715Y012266D01*
X026045Y012266D02*
X022820Y012266D01*
X023064Y012424D02*
X025912Y012424D01*
X026380Y012680D02*
X024280Y012680D01*
X024280Y012930D01*
X024930Y013580D01*
X031930Y013580D01*
X032380Y013130D01*
X032474Y013375D02*
X033975Y013375D01*
X032113Y013058D02*
X029780Y013058D01*
X029508Y013217D02*
X031954Y013217D01*
X034085Y014485D02*
X003370Y014485D01*
X003370Y014643D02*
X034189Y014643D01*
X034031Y014802D02*
X003370Y014802D01*
X003370Y014960D02*
X033930Y014960D01*
X033930Y015277D02*
X003370Y015277D01*
X003370Y015119D02*
X034460Y015119D01*
X034008Y015436D02*
X003370Y015436D01*
X003370Y015594D02*
X034166Y015594D01*
X034108Y015753D02*
X003425Y015753D01*
X003664Y015911D02*
X016982Y015911D01*
X016877Y015994D02*
X016877Y015994D01*
X016801Y016070D02*
X003726Y016070D01*
X003717Y016228D02*
X016643Y016228D01*
X016484Y016387D02*
X003664Y016387D01*
X003737Y016545D02*
X016326Y016545D01*
X016167Y016704D02*
X003739Y016704D01*
X003746Y016630D02*
X003130Y016630D01*
X003130Y016630D01*
X003130Y016630D01*
X002514Y016630D01*
X003130Y016630D01*
X003746Y016630D01*
X003672Y016862D02*
X014325Y016862D01*
X014680Y017130D02*
X003130Y017130D01*
X002808Y017496D02*
X002510Y017496D01*
X002510Y017338D02*
X002589Y017338D01*
X002534Y017179D02*
X002510Y017179D01*
X002510Y017021D02*
X002548Y017021D01*
X002510Y016862D02*
X002588Y016862D01*
X002521Y016704D02*
X002510Y016704D01*
X002510Y016545D02*
X002523Y016545D01*
X002510Y016387D02*
X002596Y016387D01*
X002543Y016228D02*
X002510Y016228D01*
X002510Y016070D02*
X002534Y016070D01*
X002510Y015911D02*
X002596Y015911D01*
X002510Y015753D02*
X002835Y015753D01*
X002890Y015594D02*
X002510Y015594D01*
X002510Y015436D02*
X002890Y015436D01*
X002890Y015277D02*
X002510Y015277D01*
X002510Y015119D02*
X002890Y015119D01*
X002890Y014960D02*
X002510Y014960D01*
X002510Y014802D02*
X002890Y014802D01*
X002890Y014643D02*
X002510Y014643D01*
X002510Y014485D02*
X002890Y014485D01*
X002890Y014326D02*
X002510Y014326D01*
X002510Y014168D02*
X002890Y014168D01*
X002890Y014009D02*
X002510Y014009D01*
X002510Y013851D02*
X002890Y013851D01*
X002890Y013692D02*
X002510Y013692D01*
X002510Y013534D02*
X002910Y013534D01*
X003046Y013375D02*
X002510Y013375D01*
X002510Y013217D02*
X003204Y013217D01*
X003363Y013058D02*
X002510Y013058D01*
X002510Y012900D02*
X003521Y012900D01*
X003680Y012741D02*
X002510Y012741D01*
X002510Y012583D02*
X003838Y012583D01*
X003997Y012424D02*
X002510Y012424D01*
X002510Y012266D02*
X004155Y012266D01*
X004314Y012107D02*
X002510Y012107D01*
X002510Y011949D02*
X004472Y011949D01*
X004631Y011790D02*
X002510Y011790D01*
X002510Y011632D02*
X004789Y011632D01*
X004930Y011830D02*
X003130Y013630D01*
X003130Y016130D01*
X003452Y017496D02*
X015804Y017496D01*
X015800Y017338D02*
X015038Y017338D01*
X015038Y017179D02*
X015840Y017179D01*
X015940Y017021D02*
X015038Y017021D01*
X015035Y016862D02*
X016090Y016862D01*
X016330Y016880D02*
X017080Y016130D01*
X034480Y016130D01*
X034145Y016545D02*
X017004Y016545D01*
X016846Y016704D02*
X034157Y016704D01*
X033998Y016862D02*
X018585Y016862D01*
X018230Y017130D02*
X034480Y017130D01*
X034096Y017496D02*
X016856Y017496D01*
X016860Y017338D02*
X017872Y017338D01*
X017872Y017179D02*
X016820Y017179D01*
X016720Y017021D02*
X017872Y017021D01*
X017875Y016862D02*
X016687Y016862D01*
X016330Y016880D02*
X016330Y017380D01*
X015870Y017655D02*
X002510Y017655D01*
X002510Y017813D02*
X016013Y017813D01*
X016647Y017813D02*
X034047Y017813D01*
X033950Y017972D02*
X002510Y017972D01*
X002510Y018130D02*
X033950Y018130D01*
X033950Y018289D02*
X002510Y018289D01*
X002510Y018447D02*
X034047Y018447D01*
X034206Y018606D02*
X002510Y018606D01*
X003370Y014326D02*
X014287Y014326D01*
X014128Y014168D02*
X003370Y014168D01*
X003370Y014009D02*
X013970Y014009D01*
X013811Y013851D02*
X003370Y013851D01*
X003407Y013692D02*
X013653Y013692D01*
X013494Y013534D02*
X003566Y013534D01*
X003724Y013375D02*
X013360Y013375D01*
X013856Y013217D02*
X014817Y013217D01*
X014671Y013058D02*
X013820Y013058D01*
X013580Y012780D02*
X015130Y012780D01*
X014736Y012424D02*
X012462Y012424D01*
X012242Y012107D02*
X021964Y012107D01*
X021730Y012680D02*
X022580Y011830D01*
X022730Y012680D02*
X024280Y012680D01*
X024906Y013217D02*
X029252Y013217D01*
X029371Y013217D02*
X029389Y013217D01*
X029389Y013058D02*
X029371Y013058D01*
X029371Y012900D02*
X029389Y012900D01*
X029389Y012741D02*
X029371Y012741D01*
X029371Y012583D02*
X029389Y012583D01*
X029389Y012424D02*
X029371Y012424D01*
X029371Y012266D02*
X029389Y012266D01*
X029799Y010522D02*
X022659Y010522D01*
X022593Y010364D02*
X028067Y010364D01*
X028130Y010130D02*
X029280Y010130D01*
X029638Y010205D02*
X030116Y010205D01*
X030274Y010047D02*
X029638Y010047D01*
X029638Y009888D02*
X030433Y009888D01*
X030591Y009730D02*
X028069Y009730D01*
X028227Y009888D02*
X028922Y009888D01*
X028130Y010130D02*
X026030Y008030D01*
X026030Y003730D01*
X026560Y003390D02*
X026671Y003390D01*
X026682Y004182D02*
X026560Y004182D01*
X026790Y004341D02*
X026270Y004341D01*
X026270Y004499D02*
X026790Y004499D01*
X026790Y004658D02*
X026270Y004658D01*
X026270Y004816D02*
X026790Y004816D01*
X026790Y004975D02*
X026270Y004975D01*
X026270Y005133D02*
X026790Y005133D01*
X026790Y005292D02*
X026270Y005292D01*
X026270Y005450D02*
X026790Y005450D01*
X026790Y005609D02*
X026270Y005609D01*
X026270Y005767D02*
X026790Y005767D01*
X026790Y005926D02*
X026270Y005926D01*
X026270Y006084D02*
X026790Y006084D01*
X026790Y006243D02*
X026270Y006243D01*
X026270Y006401D02*
X026790Y006401D01*
X026790Y006560D02*
X026270Y006560D01*
X026270Y006718D02*
X026790Y006718D01*
X026790Y006877D02*
X026270Y006877D01*
X026270Y007035D02*
X026790Y007035D01*
X026790Y007194D02*
X026270Y007194D01*
X026270Y007352D02*
X026790Y007352D01*
X026790Y007511D02*
X026270Y007511D01*
X026270Y007669D02*
X026790Y007669D01*
X026790Y007828D02*
X026270Y007828D01*
X026325Y007986D02*
X026790Y007986D01*
X026818Y008145D02*
X026484Y008145D01*
X026642Y008303D02*
X026964Y008303D01*
X027122Y008462D02*
X026801Y008462D01*
X026959Y008620D02*
X027281Y008620D01*
X027439Y008779D02*
X027118Y008779D01*
X027276Y008937D02*
X027598Y008937D01*
X027756Y009096D02*
X027435Y009096D01*
X027593Y009254D02*
X027915Y009254D01*
X027232Y009571D02*
X022439Y009571D01*
X022370Y009730D02*
X027390Y009730D01*
X027549Y009888D02*
X022370Y009888D01*
X022370Y010047D02*
X027707Y010047D01*
X027866Y010205D02*
X022455Y010205D01*
X022130Y010630D02*
X022130Y009130D01*
X020680Y009130D01*
X018380Y006830D01*
X017980Y006830D01*
X018400Y006560D02*
X025790Y006560D01*
X025790Y006718D02*
X022496Y006718D01*
X022488Y006710D02*
X022550Y006772D01*
X022600Y006842D01*
X022640Y006919D01*
X022666Y007001D01*
X022680Y007087D01*
X022680Y007130D01*
X022130Y007130D01*
X022130Y007130D01*
X022130Y006580D01*
X022173Y006580D01*
X022259Y006594D01*
X022341Y006620D01*
X022418Y006660D01*
X022488Y006710D01*
X022618Y006877D02*
X025790Y006877D01*
X025790Y007035D02*
X022672Y007035D01*
X022677Y007194D02*
X025790Y007194D01*
X025790Y007352D02*
X022634Y007352D01*
X022527Y007511D02*
X025790Y007511D01*
X025790Y007669D02*
X024702Y007669D01*
X024877Y007828D02*
X025790Y007828D01*
X025790Y007986D02*
X024944Y007986D01*
X024960Y008145D02*
X025818Y008145D01*
X025964Y008303D02*
X024932Y008303D01*
X024848Y008462D02*
X026122Y008462D01*
X026281Y008620D02*
X024632Y008620D01*
X024228Y008620D02*
X022332Y008620D01*
X022528Y008779D02*
X026439Y008779D01*
X026598Y008937D02*
X022624Y008937D01*
X022660Y009096D02*
X026756Y009096D01*
X026915Y009254D02*
X022652Y009254D01*
X022587Y009413D02*
X027073Y009413D01*
X028118Y008779D02*
X029909Y008779D01*
X032335Y007986D02*
X027325Y007986D01*
X025790Y006401D02*
X018365Y006401D01*
X018246Y006243D02*
X025790Y006243D01*
X024158Y007669D02*
X022402Y007669D01*
X022577Y007828D02*
X023983Y007828D01*
X024430Y008130D02*
X022130Y008130D01*
X021628Y008303D02*
X020192Y008303D01*
X020034Y008145D02*
X021600Y008145D01*
X021616Y007986D02*
X019875Y007986D01*
X019717Y007828D02*
X021683Y007828D01*
X021858Y007669D02*
X019558Y007669D01*
X019400Y007511D02*
X021733Y007511D01*
X021626Y007352D02*
X019241Y007352D01*
X019083Y007194D02*
X021583Y007194D01*
X021580Y007130D02*
X021580Y007087D01*
X021594Y007001D01*
X021620Y006919D01*
X021660Y006842D01*
X021710Y006772D01*
X021772Y006710D01*
X021842Y006660D01*
X021919Y006620D01*
X022001Y006594D01*
X022087Y006580D01*
X022130Y006580D01*
X022130Y007130D01*
X022130Y007130D01*
X022130Y007130D01*
X021580Y007130D01*
X021588Y007035D02*
X018924Y007035D01*
X018766Y006877D02*
X021642Y006877D01*
X021764Y006718D02*
X018607Y006718D01*
X018583Y006694D02*
X018583Y006694D01*
X018404Y007194D02*
X018392Y007194D01*
X018312Y007352D02*
X018563Y007352D01*
X020351Y008462D02*
X021712Y008462D01*
X021928Y008620D02*
X020509Y008620D01*
X020668Y008779D02*
X021732Y008779D01*
X022548Y008462D02*
X024012Y008462D01*
X022130Y007035D02*
X022130Y007035D01*
X022130Y006877D02*
X022130Y006877D01*
X022130Y006718D02*
X022130Y006718D01*
X025500Y004182D02*
X018328Y004182D01*
X018453Y004024D02*
X025500Y004024D01*
X025500Y003865D02*
X018510Y003865D01*
X018510Y003707D02*
X025500Y003707D01*
X025500Y003548D02*
X018458Y003548D01*
X018339Y003390D02*
X025500Y003390D01*
X030380Y006030D02*
X030382Y006100D01*
X030388Y006170D01*
X030398Y006239D01*
X030411Y006308D01*
X030429Y006376D01*
X030450Y006443D01*
X030475Y006508D01*
X030504Y006572D01*
X030536Y006635D01*
X030572Y006695D01*
X030611Y006753D01*
X030653Y006809D01*
X030698Y006863D01*
X030746Y006914D01*
X030797Y006962D01*
X030851Y007007D01*
X030907Y007049D01*
X030965Y007088D01*
X031025Y007124D01*
X031088Y007156D01*
X031152Y007185D01*
X031217Y007210D01*
X031284Y007231D01*
X031352Y007249D01*
X031421Y007262D01*
X031490Y007272D01*
X031560Y007278D01*
X031630Y007280D01*
X031700Y007278D01*
X031770Y007272D01*
X031839Y007262D01*
X031908Y007249D01*
X031976Y007231D01*
X032043Y007210D01*
X032108Y007185D01*
X032172Y007156D01*
X032235Y007124D01*
X032295Y007088D01*
X032353Y007049D01*
X032409Y007007D01*
X032463Y006962D01*
X032514Y006914D01*
X032562Y006863D01*
X032607Y006809D01*
X032649Y006753D01*
X032688Y006695D01*
X032724Y006635D01*
X032756Y006572D01*
X032785Y006508D01*
X032810Y006443D01*
X032831Y006376D01*
X032849Y006308D01*
X032862Y006239D01*
X032872Y006170D01*
X032878Y006100D01*
X032880Y006030D01*
X032878Y005960D01*
X032872Y005890D01*
X032862Y005821D01*
X032849Y005752D01*
X032831Y005684D01*
X032810Y005617D01*
X032785Y005552D01*
X032756Y005488D01*
X032724Y005425D01*
X032688Y005365D01*
X032649Y005307D01*
X032607Y005251D01*
X032562Y005197D01*
X032514Y005146D01*
X032463Y005098D01*
X032409Y005053D01*
X032353Y005011D01*
X032295Y004972D01*
X032235Y004936D01*
X032172Y004904D01*
X032108Y004875D01*
X032043Y004850D01*
X031976Y004829D01*
X031908Y004811D01*
X031839Y004798D01*
X031770Y004788D01*
X031700Y004782D01*
X031630Y004780D01*
X031560Y004782D01*
X031490Y004788D01*
X031421Y004798D01*
X031352Y004811D01*
X031284Y004829D01*
X031217Y004850D01*
X031152Y004875D01*
X031088Y004904D01*
X031025Y004936D01*
X030965Y004972D01*
X030907Y005011D01*
X030851Y005053D01*
X030797Y005098D01*
X030746Y005146D01*
X030698Y005197D01*
X030653Y005251D01*
X030611Y005307D01*
X030572Y005365D01*
X030536Y005425D01*
X030504Y005488D01*
X030475Y005552D01*
X030450Y005617D01*
X030429Y005684D01*
X030411Y005752D01*
X030398Y005821D01*
X030388Y005890D01*
X030382Y005960D01*
X030380Y006030D01*
X029957Y010364D02*
X029638Y010364D01*
X020477Y009266D02*
X020477Y009266D01*
X018748Y010998D02*
X017637Y010998D01*
X017795Y011156D02*
X019015Y011156D01*
X019245Y011156D02*
X019317Y011156D01*
X019475Y011315D02*
X017954Y011315D01*
X018112Y011473D02*
X019634Y011473D01*
X018130Y011830D02*
X012180Y011830D01*
X004930Y011830D01*
X004992Y012107D02*
X011564Y012107D01*
X011405Y012266D02*
X004834Y012266D01*
X004675Y012424D02*
X010998Y012424D01*
X010860Y012583D02*
X004517Y012583D01*
X004358Y012741D02*
X010813Y012741D01*
X010828Y012900D02*
X004200Y012900D01*
X002510Y011473D02*
X017434Y011473D01*
X017275Y011315D02*
X002510Y011315D01*
X002510Y011156D02*
X017117Y011156D01*
X016958Y010998D02*
X002510Y010998D01*
X002510Y010839D02*
X016800Y010839D01*
X016740Y010681D02*
X002510Y010681D01*
X002510Y010522D02*
X016740Y010522D01*
X016740Y010364D02*
X002510Y010364D01*
X002510Y010205D02*
X016740Y010205D01*
X016740Y010047D02*
X002510Y010047D01*
X011230Y012780D02*
X012180Y011830D01*
X015524Y012424D02*
X017709Y012424D01*
X017616Y012583D02*
X015622Y012583D01*
X015660Y012741D02*
X017580Y012741D01*
X017592Y012900D02*
X015654Y012900D01*
X015589Y013058D02*
X017654Y013058D01*
X017795Y013217D02*
X015443Y013217D01*
X018121Y013217D02*
X018139Y013217D01*
X018139Y013058D02*
X018121Y013058D01*
X018121Y012900D02*
X018139Y012900D01*
X018139Y012741D02*
X018121Y012741D01*
X018121Y012583D02*
X018139Y012583D01*
X018139Y012424D02*
X018121Y012424D01*
X017163Y016387D02*
X033987Y016387D01*
X034206Y017655D02*
X016790Y017655D01*
X016492Y019874D02*
X036545Y019874D01*
X036545Y020032D02*
X016732Y020032D01*
X016825Y020191D02*
X036545Y020191D01*
X036545Y020349D02*
X016860Y020349D01*
X016851Y020508D02*
X036545Y020508D01*
X036545Y020666D02*
X016785Y020666D01*
X016330Y020380D02*
X011730Y020380D01*
X034754Y018606D02*
X035178Y018606D01*
X035019Y018447D02*
X034913Y018447D01*
X035941Y018447D02*
X036545Y018447D01*
X036545Y018289D02*
X036030Y018289D01*
D13*
X026030Y003780D03*
D14*
X027030Y003780D03*
X028030Y003780D03*
X029030Y003780D03*
X022130Y007130D03*
X022130Y008130D03*
X022130Y009130D03*
X024430Y008130D03*
X022130Y010630D03*
X024430Y011130D03*
X026380Y012680D03*
X029380Y012680D03*
X019130Y010630D03*
X018130Y012780D03*
X015130Y012780D03*
X016330Y017380D03*
X016330Y020380D03*
X015980Y003780D03*
X016980Y003780D03*
X017980Y003780D03*
X014430Y003780D03*
X011430Y003780D03*
D15*
X015980Y006570D02*
X015980Y007090D01*
X016980Y007090D02*
X016980Y006570D01*
X017980Y006570D02*
X017980Y007090D01*
D16*
X011730Y019380D03*
X011730Y020380D03*
D17*
X003348Y017130D02*
X002912Y017130D01*
X002912Y016630D02*
X003348Y016630D01*
X003348Y016130D02*
X002912Y016130D01*
D18*
X011230Y012780D03*
X012230Y012780D03*
X021730Y012680D03*
X022730Y012680D03*
D19*
X034480Y013130D03*
X035480Y013130D03*
X035480Y012130D03*
X034480Y012130D03*
X034480Y011130D03*
X035480Y011130D03*
X035480Y010130D03*
X034480Y010130D03*
X034480Y009130D03*
X035480Y009130D03*
X035480Y008130D03*
X034480Y008130D03*
X034480Y007130D03*
X035480Y007130D03*
X035480Y006130D03*
X034480Y006130D03*
X034480Y014130D03*
X035480Y014130D03*
X035480Y015130D03*
X034480Y015130D03*
X034480Y016130D03*
X035480Y016130D03*
X035480Y017130D03*
X034480Y017130D03*
X034480Y018130D03*
X035480Y018130D03*
D20*
X030780Y011130D03*
X031730Y010130D03*
X032730Y009130D03*
X030180Y009130D03*
X029280Y010130D03*
X028430Y011130D03*
X018230Y017130D03*
X014680Y017130D03*
M02*
