G75*
%MOIN*%
%OFA0B0*%
%FSLAX24Y24*%
%IPPOS*%
%LPD*%
%AMOC8*
5,1,8,0,0,1.08239X$1,22.5*
%
%ADD10C,0.0000*%
%ADD11C,0.0010*%
%ADD12C,0.0160*%
D10*
X002030Y002280D02*
X002030Y021280D01*
X002030Y002280D02*
X037030Y002280D01*
D11*
X037030Y021280D01*
X002030Y021280D01*
D12*
X006080Y006030D02*
X006082Y006100D01*
X006088Y006170D01*
X006098Y006239D01*
X006111Y006308D01*
X006129Y006376D01*
X006150Y006443D01*
X006175Y006508D01*
X006204Y006572D01*
X006236Y006635D01*
X006272Y006695D01*
X006311Y006753D01*
X006353Y006809D01*
X006398Y006863D01*
X006446Y006914D01*
X006497Y006962D01*
X006551Y007007D01*
X006607Y007049D01*
X006665Y007088D01*
X006725Y007124D01*
X006788Y007156D01*
X006852Y007185D01*
X006917Y007210D01*
X006984Y007231D01*
X007052Y007249D01*
X007121Y007262D01*
X007190Y007272D01*
X007260Y007278D01*
X007330Y007280D01*
X007400Y007278D01*
X007470Y007272D01*
X007539Y007262D01*
X007608Y007249D01*
X007676Y007231D01*
X007743Y007210D01*
X007808Y007185D01*
X007872Y007156D01*
X007935Y007124D01*
X007995Y007088D01*
X008053Y007049D01*
X008109Y007007D01*
X008163Y006962D01*
X008214Y006914D01*
X008262Y006863D01*
X008307Y006809D01*
X008349Y006753D01*
X008388Y006695D01*
X008424Y006635D01*
X008456Y006572D01*
X008485Y006508D01*
X008510Y006443D01*
X008531Y006376D01*
X008549Y006308D01*
X008562Y006239D01*
X008572Y006170D01*
X008578Y006100D01*
X008580Y006030D01*
X008578Y005960D01*
X008572Y005890D01*
X008562Y005821D01*
X008549Y005752D01*
X008531Y005684D01*
X008510Y005617D01*
X008485Y005552D01*
X008456Y005488D01*
X008424Y005425D01*
X008388Y005365D01*
X008349Y005307D01*
X008307Y005251D01*
X008262Y005197D01*
X008214Y005146D01*
X008163Y005098D01*
X008109Y005053D01*
X008053Y005011D01*
X007995Y004972D01*
X007935Y004936D01*
X007872Y004904D01*
X007808Y004875D01*
X007743Y004850D01*
X007676Y004829D01*
X007608Y004811D01*
X007539Y004798D01*
X007470Y004788D01*
X007400Y004782D01*
X007330Y004780D01*
X007260Y004782D01*
X007190Y004788D01*
X007121Y004798D01*
X007052Y004811D01*
X006984Y004829D01*
X006917Y004850D01*
X006852Y004875D01*
X006788Y004904D01*
X006725Y004936D01*
X006665Y004972D01*
X006607Y005011D01*
X006551Y005053D01*
X006497Y005098D01*
X006446Y005146D01*
X006398Y005197D01*
X006353Y005251D01*
X006311Y005307D01*
X006272Y005365D01*
X006236Y005425D01*
X006204Y005488D01*
X006175Y005552D01*
X006150Y005617D01*
X006129Y005684D01*
X006111Y005752D01*
X006098Y005821D01*
X006088Y005890D01*
X006082Y005960D01*
X006080Y006030D01*
X030380Y006030D02*
X030382Y006100D01*
X030388Y006170D01*
X030398Y006239D01*
X030411Y006308D01*
X030429Y006376D01*
X030450Y006443D01*
X030475Y006508D01*
X030504Y006572D01*
X030536Y006635D01*
X030572Y006695D01*
X030611Y006753D01*
X030653Y006809D01*
X030698Y006863D01*
X030746Y006914D01*
X030797Y006962D01*
X030851Y007007D01*
X030907Y007049D01*
X030965Y007088D01*
X031025Y007124D01*
X031088Y007156D01*
X031152Y007185D01*
X031217Y007210D01*
X031284Y007231D01*
X031352Y007249D01*
X031421Y007262D01*
X031490Y007272D01*
X031560Y007278D01*
X031630Y007280D01*
X031700Y007278D01*
X031770Y007272D01*
X031839Y007262D01*
X031908Y007249D01*
X031976Y007231D01*
X032043Y007210D01*
X032108Y007185D01*
X032172Y007156D01*
X032235Y007124D01*
X032295Y007088D01*
X032353Y007049D01*
X032409Y007007D01*
X032463Y006962D01*
X032514Y006914D01*
X032562Y006863D01*
X032607Y006809D01*
X032649Y006753D01*
X032688Y006695D01*
X032724Y006635D01*
X032756Y006572D01*
X032785Y006508D01*
X032810Y006443D01*
X032831Y006376D01*
X032849Y006308D01*
X032862Y006239D01*
X032872Y006170D01*
X032878Y006100D01*
X032880Y006030D01*
X032878Y005960D01*
X032872Y005890D01*
X032862Y005821D01*
X032849Y005752D01*
X032831Y005684D01*
X032810Y005617D01*
X032785Y005552D01*
X032756Y005488D01*
X032724Y005425D01*
X032688Y005365D01*
X032649Y005307D01*
X032607Y005251D01*
X032562Y005197D01*
X032514Y005146D01*
X032463Y005098D01*
X032409Y005053D01*
X032353Y005011D01*
X032295Y004972D01*
X032235Y004936D01*
X032172Y004904D01*
X032108Y004875D01*
X032043Y004850D01*
X031976Y004829D01*
X031908Y004811D01*
X031839Y004798D01*
X031770Y004788D01*
X031700Y004782D01*
X031630Y004780D01*
X031560Y004782D01*
X031490Y004788D01*
X031421Y004798D01*
X031352Y004811D01*
X031284Y004829D01*
X031217Y004850D01*
X031152Y004875D01*
X031088Y004904D01*
X031025Y004936D01*
X030965Y004972D01*
X030907Y005011D01*
X030851Y005053D01*
X030797Y005098D01*
X030746Y005146D01*
X030698Y005197D01*
X030653Y005251D01*
X030611Y005307D01*
X030572Y005365D01*
X030536Y005425D01*
X030504Y005488D01*
X030475Y005552D01*
X030450Y005617D01*
X030429Y005684D01*
X030411Y005752D01*
X030398Y005821D01*
X030388Y005890D01*
X030382Y005960D01*
X030380Y006030D01*
M02*
