G75*
%MOIN*%
%OFA0B0*%
%FSLAX24Y24*%
%IPPOS*%
%LPD*%
%AMOC8*
5,1,8,0,0,1.08239X$1,22.5*
%
%ADD10R,0.0740X0.0740*%
%ADD11C,0.0740*%
%ADD12C,0.0520*%
%ADD13OC8,0.0520*%
%ADD14C,0.0436*%
%ADD15C,0.0515*%
%ADD16OC8,0.0740*%
%ADD17R,0.0396X0.0396*%
%ADD18C,0.0160*%
D10*
X026030Y003780D03*
D11*
X011430Y003780D03*
X014430Y003780D03*
X015980Y003780D03*
X016980Y003780D03*
X017980Y003780D03*
X022130Y007130D03*
X022130Y008130D03*
X022130Y009130D03*
X024430Y008130D03*
X022130Y010630D03*
X024430Y011130D03*
X026380Y012680D03*
X029380Y012680D03*
X019130Y010630D03*
X018130Y012780D03*
X015130Y012780D03*
X016330Y017380D03*
X016330Y020380D03*
X027030Y003780D03*
X028030Y003780D03*
X029030Y003780D03*
D12*
X017980Y006570D02*
X017980Y007090D01*
X016980Y007090D02*
X016980Y006570D01*
X015980Y006570D02*
X015980Y007090D01*
D13*
X011730Y019380D03*
X011730Y020380D03*
D14*
X003348Y017130D02*
X002912Y017130D01*
X002912Y016630D02*
X003348Y016630D01*
X003348Y016130D02*
X002912Y016130D01*
D15*
X011230Y012780D03*
X012230Y012780D03*
X021730Y012680D03*
X022730Y012680D03*
D16*
X034480Y013130D03*
X035480Y013130D03*
X035480Y012130D03*
X034480Y012130D03*
X034480Y011130D03*
X035480Y011130D03*
X035480Y010130D03*
X034480Y010130D03*
X034480Y009130D03*
X035480Y009130D03*
X035480Y008130D03*
X034480Y008130D03*
X034480Y007130D03*
X035480Y007130D03*
X035480Y006130D03*
X034480Y006130D03*
X034480Y014130D03*
X035480Y014130D03*
X035480Y015130D03*
X034480Y015130D03*
X034480Y016130D03*
X035480Y016130D03*
X035480Y017130D03*
X034480Y017130D03*
X034480Y018130D03*
X035480Y018130D03*
D17*
X030780Y011130D03*
X031730Y010130D03*
X032730Y009130D03*
X030180Y009130D03*
X029280Y010130D03*
X028430Y011130D03*
X018230Y017130D03*
X014680Y017130D03*
D18*
X015380Y017130D01*
X016080Y016430D01*
X016730Y016430D01*
X017430Y017130D01*
X018230Y017130D01*
X028430Y011130D02*
X030780Y011130D01*
X031730Y010130D02*
X029280Y010130D01*
X030180Y009130D02*
X032730Y009130D01*
M02*
