%
M48
M72
T01C0.0236
T02C0.0315
T03C0.0320
T04C0.0354
T05C0.0400
%
T01
X3130Y16130
X3130Y16630
X3130Y17130
X14680Y17130
X18230Y17130
X28430Y11130
X29280Y10130
X30780Y11130
X31730Y10130
X32730Y9130
X30180Y9130
T02
X22730Y12680
X21730Y12680
X12230Y12780
X11230Y12780
T03
X15980Y6830
X16980Y6830
X17980Y6830
X22130Y7130
X22130Y8130
X22130Y9130
X11730Y19380
X11730Y20380
T04
X11430Y3780
X14430Y3780
X24430Y8130
X22130Y10630
X24430Y11130
X26380Y12680
X29380Y12680
X19130Y10630
X18130Y12780
X15130Y12780
X16330Y17380
X16330Y20380
T05
X34480Y18130
X35480Y18130
X35480Y17130
X34480Y17130
X34480Y16130
X35480Y16130
X35480Y15130
X34480Y15130
X34480Y14130
X35480Y14130
X35480Y13130
X34480Y13130
X34480Y12130
X35480Y12130
X35480Y11130
X34480Y11130
X34480Y10130
X35480Y10130
X35480Y9130
X34480Y9130
X34480Y8130
X35480Y8130
X35480Y7130
X34480Y7130
X34480Y6130
X35480Y6130
X29030Y3780
X28030Y3780
X27030Y3780
X26030Y3780
X17980Y3780
X16980Y3780
X15980Y3780
M30
